<svg xmlns="http://www.w3.org/2000/svg" width="67.247" height="78.946" viewBox="0 0 67.247 78.946">
  <g id="Group_71" data-name="Group 71" transform="translate(-580.839 -488.017)">
    <path id="Path_301" data-name="Path 301" d="M238.406,758.17l.1.1a11.715,11.715,0,0,0,19.227-3.693c1.428-3.46,1.543-9.231-3.827-9.231A4.757,4.757,0,1,0,256.622,754a10.492,10.492,0,0,1-7.839,6.407A11.509,11.509,0,0,1,257,739.019a95.185,95.185,0,0,1-.541-11.152q.024-2.2.147-4.375a13.505,13.505,0,0,0-2.323,1.823,7.81,7.81,0,0,0-2.4,5.9,8.455,8.455,0,0,0,2.647,6.155c-.21-.01-.422-.016-.634-.016a12.683,12.683,0,0,0-6.537,1.8,15.146,15.146,0,0,1-2.233-7.941,14.38,14.38,0,0,1,4.856-11.348c4.694-4.35,9.758-6.886,15.189-10.441q-.567,2.478-.992,5h.006a87.147,87.147,0,0,0-.353,26.559c.821,5.854,2.367,8.131,1.034,13.549a18.524,18.524,0,0,1-24.264,12.973,9.286,9.286,0,0,1-17.673,0,18.521,18.521,0,0,1-24.324-13.235c-1.2-5.2.212-7.236,1.024-12.8a87.111,87.111,0,0,0-.282-27.048h.006q-.425-2.526-.992-5c5.433,3.555,10.495,6.091,15.191,10.441a14.385,14.385,0,0,1,4.854,11.348,15.146,15.146,0,0,1-2.234,7.941,12.675,12.675,0,0,0-6.534-1.8c-.214,0-.424.006-.634.016a8.465,8.465,0,0,0,2.646-6.155,7.82,7.82,0,0,0-2.4-5.9,13.453,13.453,0,0,0-2.326-1.823q.125,2.173.148,4.375a94.33,94.33,0,0,1-.542,11.152,11.509,11.509,0,0,1,8.222,21.39,10.493,10.493,0,0,1-7.84-6.407,4.757,4.757,0,1,0,2.724-8.659c-4.868,0-5.242,4.9-4.171,8.291a11.716,11.716,0,0,0,19.57,4.633l.095-.1c3.59-3.776,3.252-7.527,3.252-12.049V732.2a9.3,9.3,0,0,1-5.768-10.235,12.646,12.646,0,0,1-9.284-17.27,12.676,12.676,0,0,1,10.707.463A12.658,12.658,0,0,1,231.771,695a12.659,12.659,0,0,1,7.729,10.158,12.675,12.675,0,0,1,10.705-.465,12.646,12.646,0,0,1-9.287,17.272,9.522,9.522,0,0,1,.133,1.585,9.287,9.287,0,0,1-5.9,8.646v13.667c0,4.606-.387,8.481,3.251,12.308M231.769,721a2.544,2.544,0,1,0,2.546,2.546A2.546,2.546,0,0,0,231.769,721Zm-13.916-11.8a7.17,7.17,0,0,0,6.767,7.5,9.869,9.869,0,0,0-1.973,3,.615.615,0,1,0,1.134.478,8.674,8.674,0,0,1,15.978,0,.615.615,0,1,0,1.133-.478,9.9,9.9,0,0,0-1.968-2.994,7.168,7.168,0,0,0,6.767-7.5,7.171,7.171,0,0,0-7.5,6.806,9.711,9.711,0,0,0-.955-.721,9.974,9.974,0,0,0-1.69-.9l2.716-5.627a.618.618,0,1,0-1.112-.538l-2.78,5.765a9.967,9.967,0,0,0-5.2,0l-2.782-5.765a.617.617,0,1,0-1.11.538l2.717,5.627a9.959,9.959,0,0,0-2.642,1.617,7.17,7.17,0,0,0-7.5-6.806Zm13.918-7.819a7.169,7.169,0,0,0,0,10.608,7.169,7.169,0,0,0,0-10.608Zm1.893,61.657-1.893-2.271-1.876,2.253c0,.006-.012.012-.017.018a2.491,2.491,0,1,0,3.786,0Z" transform="translate(382.693 -206.981)" fill="#d2b548"/>
  </g>
</svg>
